<svg version="1.1" xmlns="http://www.w3.org/2000/svg" width="500" height="500">
<path d="M0 0 C0.72848145 0.32194336 1.45696289 0.64388672 2.20751953 0.97558594 C17.06858196 7.57708459 30.50118126 15.51498182 43.5625 25.1875 C44.20533936 25.66227783 44.84817871 26.13705566 45.51049805 26.6262207 C52.2386407 31.72793399 57.80840779 37.46421226 62.8125 44.25 C66.1259196 48.63661003 69.51241917 52.91718836 73.125 57.0625 C73.87007813 57.91972656 74.61515625 58.77695313 75.3828125 59.66015625 C77.71123164 61.74183246 79.18859811 62.62568127 81.9609375 63.84765625 C86.62351524 66.03702634 88.79776258 69.09471311 91.5 73.375 C92.19863159 74.43847656 92.19863159 74.43847656 92.91137695 75.5234375 C97.23554222 82.18171569 101.25940112 88.99669302 105 96 C105.32564941 96.60215332 105.65129883 97.20430664 105.98681641 97.82470703 C115.13910841 114.88429373 121.94527755 133.06599047 126 152 C126.29414795 153.36705078 126.29414795 153.36705078 126.59423828 154.76171875 C130.26875029 172.57243597 130.46887812 189.91032127 130 208 C127.69 208 125.38 208 123 208 C122.34 206.35 121.68 204.7 121 203 C122.32 202.34 123.64 201.68 125 201 C123.5437455 200.32880451 122.08492133 199.66318193 120.625 199 C119.81289063 198.62875 119.00078125 198.2575 118.1640625 197.875 C116.08001567 196.87504987 116.08001567 196.87504987 114 197 C114.01740234 197.90492188 114.01740234 197.90492188 114.03515625 198.828125 C114.04869141 200.02695312 114.04869141 200.02695312 114.0625 201.25 C114.07410156 202.03890625 114.08570313 202.8278125 114.09765625 203.640625 C114.00385306 205.90691002 113.63241063 207.8288895 113 210 C113.66 210 114.32 210 115 210 C114.67 211.65 114.34 213.3 114 215 C112.515 213.515 112.515 213.515 111 212 C110.401875 212.825 109.80375 213.65 109.1875 214.5 C108.465625 215.325 107.74375 216.15 107 217 C106.01 217 105.02 217 104 217 C105.24976756 213.34683329 105.67098753 212.21934164 109 210 C106.69 210 104.38 210 102 210 C101.896875 210.7425 101.79375 211.485 101.6875 212.25 C100.95746496 215.17014018 99.93210602 216.73187554 98 219 C98.969375 219.12375 99.93875 219.2475 100.9375 219.375 C101.948125 219.58125 102.95875 219.7875 104 220 C104.33 220.66 104.66 221.32 105 222 C105.99 222.33 106.98 222.66 108 223 C108 221.35 108 219.7 108 218 C108.66 218 109.32 218 110 218 C110.33 219.32 110.66 220.64 111 222 C111.845625 221.938125 112.69125 221.87625 113.5625 221.8125 C117.73619843 222.04015628 120.25432947 223.20207814 124 225 C123.34 227.31 122.68 229.62 122 232 C122.66 232.33 123.32 232.66 124 233 C123.34 235.31 122.68 237.62 122 240 C121.01 240 120.02 240 119 240 C119 240.66 119 241.32 119 242 C121.49064888 242.68707555 123.37886292 243 126 243 C125.01 246.96 124.02 250.92 123 255 C115.25 254.125 115.25 254.125 113 253 C113 252.34 113 251.68 113 251 C112.34 251 111.68 251 111 251 C110.87625 252.11375 110.7525 253.2275 110.625 254.375 C110 258 110 258 108 260 C109.32 260 110.64 260 112 260 C112.33 259.01 112.66 258.02 113 257 C114.65 256.67 116.3 256.34 118 256 C117.67 258.64 117.34 261.28 117 264 C115.02 264.66 113.04 265.32 111 266 C111.66 266.33 112.32 266.66 113 267 C113.625 269.5625 113.625 269.5625 114 272 C114.99 271.67 115.98 271.34 117 271 C112.85729016 285.75055777 106.84781245 299.27767311 97.234375 311.3203125 C95.77889162 313.1842213 95.77889162 313.1842213 94.4375 316.375 C93 319 93 319 90.3125 320.375 C89.549375 320.58125 88.78625 320.7875 88 321 C88.10054688 321.73476563 88.20109375 322.46953125 88.3046875 323.2265625 C88 326 88 326 85.8828125 328.2109375 C84.97273438 328.92507813 84.06265625 329.63921875 83.125 330.375 C78.74168361 334.08206842 77.18304815 336.29985891 76 342 C71.83515117 348.18009826 65.79528824 352.41599228 60 357 C58.47052734 358.25296875 58.47052734 358.25296875 56.91015625 359.53125 C32.1985267 379.6426686 -1.64388324 403 -35 403 C-35 403.66 -35 404.32 -35 405 C-33.68 405.66 -32.36 406.32 -31 407 C-33.89444095 407.6732656 -36.79030013 408.33880404 -39.6875 409 C-40.91243164 409.28617187 -40.91243164 409.28617187 -42.16210938 409.578125 C-46.17239326 410.48733916 -49.85717252 411.27000098 -54 411 C-54.33 409.68 -54.66 408.36 -55 407 C-56.05832031 407.2165625 -57.11664063 407.433125 -58.20703125 407.65625 C-68.14923444 409.53546015 -77.87951575 410.32480541 -88 410.375 C-89.67993042 410.39530273 -89.67993042 410.39530273 -91.39379883 410.41601562 C-97.91982546 410.38118693 -103.49006031 409.60545267 -109.68457031 407.51489258 C-113.35803594 406.6980074 -115.76554206 408.32056992 -119 410 C-123.43369781 410.38221533 -127.16641921 410.40967936 -131 408 C-131.433125 406.5459375 -131.433125 406.5459375 -131.875 405.0625 C-132.24625 404.051875 -132.6175 403.04125 -133 402 C-134.72045676 401.35077103 -136.44257982 400.70482583 -138.1796875 400.1015625 C-142.00885023 397.78434385 -143.64487743 393.10908133 -145 389 C-145.12890625 386.3046875 -145.12890625 386.3046875 -145 384 C-145 383.34 -145 382.68 -145 382 C-146.11375 382.4640625 -146.11375 382.4640625 -147.25 382.9375 C-149.50692176 383.8094925 -151.6450153 384.47667007 -154 385 C-154 384.01 -154 383.02 -154 382 C-153.01 382 -152.02 382 -151 382 C-151.33 380.68 -151.66 379.36 -152 378 C-153.98 377.67 -155.96 377.34 -158 377 C-157.938125 378.0725 -157.87625 379.145 -157.8125 380.25 C-158.00543309 384.10866187 -158.39665076 385.28817788 -161 388 C-162.32 387.67 -163.64 387.34 -165 387 C-165 385.35 -165 383.7 -165 382 C-165.80824219 382.04640625 -166.61648437 382.0928125 -167.44921875 382.140625 C-176.20519481 382.43636364 -176.20519481 382.43636364 -180.1875 380.25 C-183 376.75862069 -183 376.75862069 -183 374 C-181.5625 371.75 -181.5625 371.75 -180 370 C-182.31 370.33 -184.62 370.66 -187 371 C-186.505 372.485 -186.505 372.485 -186 374 C-184.8134874 378.08594833 -184.85134821 381.76342394 -185 386 C-188.34296476 385.61794688 -189.8967213 385.08312676 -192.5625 382.9375 C-195.00292722 380.58517058 -195.00292722 380.58517058 -199 381 C-199.99 380.34 -200.98 379.68 -202 379 C-201.34 376.69 -200.68 374.38 -200 372 C-201.65 373.32 -203.3 374.64 -205 376 C-207.9719385 374.87548273 -210.33440687 373.77706209 -213 372 C-213.98515378 369.37643538 -214.42238929 366.75475877 -215 364 C-212.36 362.02 -209.72 360.04 -207 358 C-207.495 356.515 -207.495 356.515 -208 355 C-209.093125 355.165 -210.18625 355.33 -211.3125 355.5 C-215 356 -215 356 -218 356 C-217.67 357.32 -217.34 358.64 -217 360 C-220.18365315 359.29252152 -223.10685735 358.52390376 -226 357 C-227.22265625 354.43359375 -227.22265625 354.43359375 -228.0625 351.4375 C-228.81823306 348.48065036 -228.81823306 348.48065036 -230 346 C-232.03446344 345.07674684 -232.03446344 345.07674684 -234 345 C-233.855625 344.443125 -233.71125 343.88625 -233.5625 343.3125 C-233.2840625 342.1678125 -233.2840625 342.1678125 -233 341 C-232.7525 340.154375 -232.505 339.30875 -232.25 338.4375 C-231.70689612 335.93642034 -231.70689612 335.93642034 -233.4375 334.1875 C-233.953125 333.795625 -234.46875 333.40375 -235 333 C-235.33 333.99 -235.66 334.98 -236 336 C-243.37875536 337.41899142 -243.37875536 337.41899142 -247 335 C-248.65551043 332.78161603 -250.01862113 330.46882984 -251.4375 328.09375 C-253.12205469 325.83644672 -254.41185455 325.02633354 -257 324 C-256.67 325.32 -256.34 326.64 -256 328 C-265.86384242 319.03287053 -271.86383628 306.64225195 -278 295 C-278.33032227 294.37496582 -278.66064453 293.74993164 -279.00097656 293.10595703 C-287.65356287 276.44394457 -297 254.03718498 -297 235 C-296.01 235 -295.02 235 -294 235 C-294.20496094 234.16597656 -294.40992188 233.33195313 -294.62109375 232.47265625 C-294.89050781 231.34730469 -295.15992188 230.22195313 -295.4375 229.0625 C-295.83775391 227.40927734 -295.83775391 227.40927734 -296.24609375 225.72265625 C-297.8618696 217.74423976 -298.15887351 209.87792707 -298.16796875 201.75390625 C-298.17129715 200.70275131 -298.17462555 199.65159637 -298.17805481 198.56858826 C-298.18309104 196.3574975 -298.18546416 194.14639922 -298.18530273 191.93530273 C-298.18749128 188.5758806 -298.20568822 185.21678618 -298.22460938 181.85742188 C-298.22754369 179.69791778 -298.22952823 177.53841214 -298.23046875 175.37890625 C-298.23765427 174.38693741 -298.24483978 173.39496857 -298.25224304 172.37294006 C-298.2316609 166.00948819 -297.43359041 160.19003431 -296 154 C-295.83126877 153.14302017 -295.66253754 152.28604034 -295.48869324 151.40309143 C-294.12520452 144.69829626 -291.85301465 138.05953767 -289.375 131.6875 C-287.92208759 128.01493518 -287.92208759 128.01493518 -287.0625 124.125 C-283.92942069 111.2615443 -283.92942069 111.2615443 -278.75 107.875 C-277.8425 107.58625 -276.935 107.2975 -276 107 C-276.103125 106.2575 -276.20625 105.515 -276.3125 104.75 C-276.209375 103.8425 -276.10625 102.935 -276 102 C-275.236875 101.4225 -274.47375 100.845 -273.6875 100.25 C-269.93409402 97.1076136 -269.07651382 93.67701612 -268 89 C-267.91492188 87.90171875 -267.82984375 86.8034375 -267.7421875 85.671875 C-266.79577242 80.9896109 -264.77434119 78.27000326 -261.875 74.5625 C-261.37943604 73.91015381 -260.88387207 73.25780762 -260.37329102 72.58569336 C-252.20596253 61.92555765 -252.20596253 61.92555765 -249 59 C-248.34 59 -247.68 59 -247 59 C-246.7215625 58.01 -246.7215625 58.01 -246.4375 57 C-241.43040857 46.55041789 -229.32442963 36.72479733 -220 30 C-216.1875 29.25 -216.1875 29.25 -213 29 C-212.91105469 28.37738281 -212.82210937 27.75476563 -212.73046875 27.11328125 C-212 25 -212 25 -210.36328125 23.98046875 C-209.0100468 23.4572181 -207.6558951 22.93633269 -206.30078125 22.41796875 C-203.97998579 20.98766527 -202.9138139 19.77331313 -201.234375 17.66796875 C-197.97419912 13.7171254 -194.43429233 11.4936459 -189.9375 9.125 C-189.15511963 8.70500732 -188.37273926 8.28501465 -187.56665039 7.85229492 C-130.5373018 -22.16285538 -59.2273505 -26.77338189 0 0 Z " fill="#E2E4E7" transform="translate(334,48)"/>
<path d="M0 0 C2.82257606 -0.04614149 5.64488398 -0.07690177 8.4677124 -0.10253906 C9.69496284 -0.12483582 9.69496284 -0.12483582 10.94700623 -0.14758301 C22.88815597 -0.20602269 35.52325542 2.85196578 44.3583374 11.33886719 C51.18970212 19.88163852 51.94077 28.12643133 51.24749756 38.75732422 C49.77814736 51.34448996 41.16195316 61.17147309 31.71380615 68.90917969 C30.18043859 70.02180615 28.58797415 71.05283974 26.97943115 72.05371094 C28.58317996 76.90247196 31.33254324 80.64675411 34.29193115 84.74121094 C34.82246094 85.48234131 35.35299072 86.22347168 35.89959717 86.98706055 C37.0226241 88.5541629 38.14791929 90.11964193 39.27532959 91.68359375 C40.92962058 93.98443285 42.5694702 96.29489945 44.20599365 98.60839844 C70.76672535 136.98952446 70.76672535 136.98952446 110.97943115 157.05371094 C110.97943115 158.04371094 110.97943115 159.03371094 110.97943115 160.05371094 C105.99909343 160.20293741 101.02007919 160.31133351 96.0380249 160.38330078 C94.34638783 160.41332411 92.65490448 160.45415732 90.96380615 160.50634766 C75.09806326 160.98344252 75.09806326 160.98344252 70.03411865 157.25683594 C68.40863037 155.70703125 68.40863037 155.70703125 66.97943115 154.05371094 C66.39540527 153.43246338 65.81137939 152.81121582 65.20965576 152.17114258 C63.3865173 150.19217083 61.68906323 148.13146255 59.97943115 146.05371094 C59.26400146 145.22484375 58.54857178 144.39597656 57.8114624 143.54199219 C42.20947205 125.29300836 29.1996578 105.12791513 16.00384521 85.12207031 C14.66717456 83.09610832 13.32578925 81.07324809 11.97943115 79.05371094 C9.26459522 78.63633222 9.26459522 78.63633222 6.09661865 78.76074219 C4.34671631 78.77524414 4.34671631 78.77524414 2.5614624 78.79003906 C0.72648193 78.82774414 0.72648193 78.82774414 -1.14556885 78.86621094 C-2.37662354 78.87974609 -3.60767822 78.89328125 -4.8760376 78.90722656 C-7.92464728 78.94267551 -10.97239385 78.99209015 -14.02056885 79.05371094 C-13.95927032 87.81640171 -13.88210161 96.57876897 -13.78485394 105.34113503 C-13.74018907 109.41018302 -13.70092459 113.4791318 -13.6741333 117.54833984 C-13.64806126 121.47779025 -13.60763181 125.40685803 -13.55738258 129.33607101 C-13.54074012 130.83266809 -13.52920953 132.32933131 -13.52295494 133.82600784 C-13.51328484 135.9278671 -13.48519358 138.02875331 -13.45294189 140.13037109 C-13.43628731 141.92240463 -13.43628731 141.92240463 -13.41929626 143.75064087 C-12.97060718 147.46759494 -11.98644062 149.88012718 -10.02056885 153.05371094 C-4.3606742 156.47323062 1.47117035 156.71240974 7.97943115 157.05371094 C7.97943115 158.04371094 7.97943115 159.03371094 7.97943115 160.05371094 C-12.15056885 160.05371094 -32.28056885 160.05371094 -53.02056885 160.05371094 C-53.02056885 159.06371094 -53.02056885 158.07371094 -53.02056885 157.05371094 C-51.8604126 157.01503906 -51.8604126 157.01503906 -50.67681885 156.97558594 C-41.18610509 156.50032284 -41.18610509 156.50032284 -33.02056885 152.05371094 C-31.25635126 148.40339947 -30.76842342 145.47731452 -30.75987244 141.44361877 C-30.74924522 139.7676915 -30.74924522 139.7676915 -30.73840332 138.0579071 C-30.74088074 136.84166153 -30.74335815 135.62541595 -30.74591064 134.37231445 C-30.74079971 133.08399719 -30.73568878 131.79567993 -30.73042297 130.46832275 C-30.71705267 126.94143999 -30.71645208 123.41466452 -30.71898627 119.88776135 C-30.72005729 116.94046797 -30.7151693 113.99319619 -30.71038085 111.04590744 C-30.69929256 104.09137949 -30.69884449 97.13690556 -30.70489502 90.18237305 C-30.71093559 83.0142497 -30.69862024 75.8463226 -30.67732495 68.67823273 C-30.65969735 62.51756687 -30.6537094 56.35696341 -30.65696269 50.19627327 C-30.6587738 46.51956878 -30.65615673 42.8430043 -30.64224815 39.16632271 C-30.62731528 35.06558657 -30.63665002 30.96524884 -30.64825439 26.86450195 C-30.64061066 25.65028061 -30.63296692 24.43605927 -30.62509155 23.18504333 C-30.61117515 15.17299501 -30.61117515 15.17299501 -34.02056885 8.05371094 C-39.68046349 4.63419126 -45.51230804 4.39501214 -52.02056885 4.05371094 C-52.02056885 3.06371094 -52.02056885 2.07371094 -52.02056885 1.05371094 C-45.42680466 0.90808165 -38.83296802 0.7661237 -32.23907471 0.62646484 C-30.0059845 0.57876497 -27.77291069 0.53028984 -25.53985596 0.48095703 C-17.02691652 0.29327018 -8.51361094 0.15138672 0 0 Z " fill="#232C47" transform="translate(294.02056884765625,200.9462890625)"/>
<path d="M0 0 C4.45234143 8.90468285 2.10053027 24.14803365 2 34 C0.515 33.505 0.515 33.505 -1 33 C-1.95703125 30.41015625 -1.95703125 30.41015625 -2.8125 27.0625 C-5.48306646 17.79167423 -10.49745851 7.1652826 -18.9453125 1.75390625 C-20.94280267 0.71718607 -22.90173164 -0.18614959 -25 -1 C-25.90492188 -1.35449219 -26.80984375 -1.70898438 -27.7421875 -2.07421875 C-36.41525202 -4.53886658 -46.45118675 -4.28378796 -54.6875 -0.5625 C-62.0925815 3.73427569 -65.77178475 9.86651473 -68 18 C-69.17909893 32.05730929 -66.21687596 40.74445852 -57.6171875 51.7734375 C-51.03162795 59.11754317 -41.47717009 63.70555208 -33.11083984 68.73779297 C3.84123349 91.04548263 3.84123349 91.04548263 8.52734375 109.14453125 C10.60662872 121.70616194 8.9970829 133.96168559 2.25 144.875 C-6.04503488 156.16202508 -18.39371816 162.40955468 -32 165 C-36.59363376 165.35186725 -41.14579888 165.33158053 -45.75 165.25 C-46.92949219 165.24484375 -48.10898438 165.2396875 -49.32421875 165.234375 C-62.15647425 165.11889913 -76.39642264 163.60357736 -86 154 C-86.46686373 151.60160201 -86.8042012 149.29815513 -87.0625 146.875 C-87.14483887 146.14740479 -87.22717773 145.41980957 -87.31201172 144.67016602 C-88.41024742 134.15211262 -88.67181291 123.56468923 -89 113 C-88.01 113.33 -87.02 113.66 -86 114 C-85.61328125 116.00390625 -85.2265625 118.0078125 -84.83984375 120.01171875 C-81.00853141 133.64406264 -72.4109283 147.64126466 -60.6875 155.5625 C-53.98453774 159.1478054 -48.23055592 160.53482046 -40.625 160.4375 C-39.78864014 160.42920166 -38.95228027 160.42090332 -38.09057617 160.41235352 C-28.69185613 160.15531796 -21.55392232 157.62432596 -14.6953125 151.015625 C-8.15463538 143.23915175 -8.07132303 133.68046975 -8.77685547 123.984375 C-10.02017567 112.92780321 -16.94823439 102.84206944 -25.41015625 95.890625 C-33.26780553 90.15442251 -41.59655006 85.06042115 -49.90625 80.01171875 C-62.84697887 72.10477936 -75.33491019 64.21885825 -82 50 C-82.33644531 49.319375 -82.67289063 48.63875 -83.01953125 47.9375 C-86.72719705 38.99847013 -86.41285425 27.60951398 -83.0625 18.625 C-77.17201757 6.44692397 -67.53972593 -0.67348672 -55.125 -5.3125 C-37.58777202 -11.37127993 -16.1567584 -9.18669342 0 0 Z " fill="#252D49" transform="translate(219,97)"/>
<path d="M0 0 C6.48887695 2.99549414 10.92519692 6.62180946 14.29296875 12.93359375 C14.70289063 13.64257812 15.1128125 14.3515625 15.53515625 15.08203125 C18.61935635 21.65456801 18.70784302 28.36312515 18.79296875 35.49609375 C18.82076416 36.9502771 18.82076416 36.9502771 18.84912109 38.43383789 C18.77959182 46.4712854 16.67254891 52.81508963 12.66796875 59.74609375 C6.14529835 65.75381649 -1.70529056 68.05631449 -10.41015625 68.06640625 C-11.47234375 68.06769531 -12.53453125 68.06898438 -13.62890625 68.0703125 C-14.7271875 68.06644531 -15.82546875 68.06257813 -16.95703125 68.05859375 C-18.07078125 68.06246094 -19.18453125 68.06632812 -20.33203125 68.0703125 C-21.3890625 68.06902344 -22.44609375 68.06773437 -23.53515625 68.06640625 C-24.98776855 68.06471436 -24.98776855 68.06471436 -26.46972656 68.06298828 C-28.70703125 67.93359375 -28.70703125 67.93359375 -29.70703125 66.93359375 C-29.81648011 65.16060316 -29.85611998 63.38325835 -29.86816406 61.60693359 C-29.88257538 59.89913223 -29.88257538 59.89913223 -29.89727783 58.15682983 C-29.90152771 56.9152713 -29.90577759 55.67371277 -29.91015625 54.39453125 C-29.91585632 53.12517731 -29.9215564 51.85582336 -29.9274292 50.54800415 C-29.93689988 47.85276706 -29.94378528 45.15764185 -29.94726562 42.46240234 C-29.95272661 39.02258773 -29.97669649 35.58317374 -30.00523758 32.14348412 C-30.0284546 28.85219711 -30.0303211 25.56088865 -30.03515625 22.26953125 C-30.04750305 21.0401181 -30.05984985 19.81070496 -30.0725708 18.54403687 C-30.05401915 11.38913702 -29.90894485 5.6819878 -25.08203125 0.03125 C-17.93584505 -3.2715104 -7.35447168 -2.11566994 0 0 Z " fill="#DFE2E5" transform="translate(309.70703125,206.06640625)"/>
</svg>
